# xmcd
#
# Track frame offsets: 
#        150
#        14792
#        29514
#        44584
#        60278
#        76700
#        93526
#        110526
#        127658
#        144745
#        162069
#        179595
#        197507
#        215914
#        234848
#        254014
#        274601
#        296139
#        318715
#        326554
#        334738
#        345501
#
# Disc length: 4768 seconds
#
# Revision: 0
# Processed by: cddbd v1.5.2PL0 Copyright (c) Steve Scherf et al.
# Submitted via: ExactAudioCopy v0.95b4
#
DISCID=4b129e16
DTITLE=Christina Aguilera - Back to Basic
DYEAR=2006
DGENRE=Pop
TTITLE0=Save Me From Myself
TTITLE1=Candyman
TTITLE2=Here To Stay
TTITLE3=Slow Down Baby
TTITLE4=On Our Way
TTITLE5=I Got Trouble
TTITLE6=Oh Mother
TTITLE7=Still Dirrty
TTITLE8=Understand
TTITLE9=Ain't No Other Man
TTITLE10=The Right Man
TTITLE11=Without You
TTITLE12=Hurt
TTITLE13=Makes Me Wanna Pray
TTITLE14=Back In The Day
TTITLE15=Mercy On Me
TTITLE16=Nasty Naughty Boy
TTITLE17=Thank You (Dedication To Fans...)
TTITLE18=Enter The Circus
TTITLE19=Intro (Back To Basics)
TTITLE20=F.U.S.S. (Interlude)
TTITLE21=Welcome
EXTD=
EXTT0=
EXTT1=
EXTT2=
EXTT3=
EXTT4=
EXTT5=
EXTT6=
EXTT7=
EXTT8=
EXTT9=
EXTT10=
EXTT11=
EXTT12=
EXTT13=
EXTT14=
EXTT15=
EXTT16=
EXTT17=
EXTT18=
EXTT19=
EXTT20=
EXTT21=
PLAYORDER=
